<?xml version="1.0" encoding="UTF-8" standalone="no"?>
<svg
   xmlns:dc="http://purl.org/dc/elements/1.1/"
   xmlns:cc="http://creativecommons.org/ns#"
   xmlns:rdf="http://www.w3.org/1999/02/22-rdf-syntax-ns#"
   xmlns:svg="http://www.w3.org/2000/svg"
   xmlns="http://www.w3.org/2000/svg"
   height="16"
   width="66"
   id="svg4"
   version="1.1"
   viewBox="0 0 66 16">
  <metadata
     id="metadata10">
    <rdf:RDF>
      <cc:Work
         rdf:about="">
        <dc:format>image/svg+xml</dc:format>
        <dc:type
           rdf:resource="http://purl.org/dc/dcmitype/StillImage" />
      </cc:Work>
    </rdf:RDF>
  </metadata>
  <defs
     id="defs8" />
  <path
     style="fill:#ffffff"
     id="path2"
     d="M 34,16 H 28 V 10.8 C 28,10.1 27.7,9.5 27.3,9 L 25,6.7 C 24.5,6.3 23.9,6 23.2,6 H 22 V 16 H 16 V 0 h 8.7 c 1.3,0 2.6,0.5 3.5,1.5 l 4.3,4.3 C 33.5,6.7 34,8 34,9.3 Z M 60,0 V 5.2 C 60,5.9 59.7,6.5 59.3,7 L 57,9.3 C 56.5,9.8 55.9,10 55.2,10 H 52.7 C 53.5,9.1 54,7.9 54,6.7 V 0 H 48 V 5.2 C 48,5.9 47.7,6.5 47.3,7 L 45,9.3 C 44.5,9.8 43.9,10 43.2,10 H 42 V 0 h -6 v 16 h 8.7 c 1.3,0 2.6,-0.5 3.5,-1.5 L 51,11.7 V 16 h 5.7 c 1.3,0 2.6,-0.5 3.5,-1.5 l 4.3,-4.3 C 65.5,9.3 66,8 66,6.7 V 0 Z M 14,0 H 0 v 6 h 4 v 10 h 6 V 6 h 4" />
</svg>
